<svg width="1732" height="399" viewBox="0 0 1732 399" fill="none" xmlns="http://www.w3.org/2000/svg">
<path fill-rule="evenodd" clip-rule="evenodd" d="M286.192 397C286.422 391.887 284.747 386.682 281.093 382.541L245.359 342.048C233.938 329.106 217.508 321.692 200.248 321.692L162.028 321.692C152.582 321.692 144.137 330.024 150.387 337.107L203.24 397L286.192 397Z" fill="#B50000"/>
<path fill-rule="evenodd" clip-rule="evenodd" d="M0 139.155L0.00014746 138.95L0 138.745C0 62.1184 62.1184 0 138.745 0L138.95 0.000147482L139.155 0V0.000590863C215.593 0.221316 277.491 62.2549 277.491 138.745C277.491 215.236 215.593 277.269 139.155 277.49V397H0V139.155ZM182.537 120.328C195.195 120.328 205.456 110.066 205.456 97.4079C205.456 84.7498 195.195 74.4883 182.537 74.4883C169.879 74.4883 159.617 84.7498 159.617 97.4079C159.617 110.066 169.879 120.328 182.537 120.328Z" fill="#B50000"/>
<path d="M312.687 137.927L274.011 153.168L274.011 122.685L312.687 137.927Z" fill="#B50000"/>
<path d="M641.662 395V17.7025H759.47C812.925 17.7025 832.646 56.6259 832.646 71.6763V156.789C831.089 176.51 805.14 203.497 781.267 207.649C794.761 212.319 825.9 231.003 837.836 267.85V395H764.141V275.635C757.394 253.319 722.623 236.711 713.8 236.711V395H641.662ZM713.8 187.927C730.926 184.814 759.989 173.396 764.66 150.042V93.9923C764.66 83.6128 759.47 76.3471 747.534 76.3471H713.8V187.927Z" fill="#222222"/>
<path d="M403.459 395V17.7025H526.457C549.811 17.7025 568.494 24.9682 581.988 38.9806C591.848 49.8792 594.443 60.2587 594.443 71.6763V171.839C594.443 210.763 523.862 254.357 477.673 262.66V395H403.459ZM476.116 200.383C493.761 197.269 526.457 179.624 526.457 158.865V93.4734C526.457 82.0558 520.748 75.8281 509.85 75.8281H476.116V200.383Z" fill="#222222"/>
<path d="M1707.58 397C1705.09 397 1702.82 396.773 1700.78 396.32C1698.74 395.867 1696.82 395.074 1695 393.941C1693.42 392.808 1691.72 391.109 1689.9 388.843L1640.28 325.963L1573.32 240.312H1607.31L1657.62 307.61L1718.8 382.385C1721.74 386.01 1724.12 388.956 1725.93 391.222C1727.75 393.488 1729.44 395.414 1731.03 397H1707.58ZM1585.9 397H1570.6C1572.87 394.961 1575.14 392.695 1577.4 390.202C1579.67 387.71 1581.82 385.331 1583.86 383.065L1642.66 312.368L1702.14 240.312H1726.61L1656.94 323.584L1602.55 389.862C1600.74 392.128 1598.59 393.941 1596.1 395.301C1593.6 396.434 1590.2 397 1585.9 397Z" fill="#222222"/>
<path d="M1543.76 330.042C1543.76 339.786 1543.31 348.849 1542.4 357.233C1541.49 365.39 1538.66 372.528 1533.9 378.646C1529.37 384.764 1521.89 389.522 1511.47 392.921C1501.27 396.32 1486.77 398.02 1467.96 398.02C1453.01 398.02 1440.77 397 1431.26 394.961C1421.97 392.695 1414.71 389.522 1409.5 385.444C1404.52 381.365 1400.89 376.607 1398.63 371.169C1396.36 365.73 1394.89 359.726 1394.21 353.154C1393.75 346.357 1393.53 339.332 1393.53 332.081V254.247C1393.53 250.622 1393.64 247.789 1393.87 245.75C1394.09 243.711 1395 242.351 1396.59 241.671C1398.17 240.992 1400.55 240.652 1403.72 240.652H1419.7V343.638C1419.7 353.834 1421.29 361.765 1424.46 367.43C1427.86 372.868 1433.07 376.72 1440.09 378.986C1447.34 381.252 1456.63 382.385 1467.96 382.385C1485.64 382.385 1498.33 379.439 1506.03 373.548C1513.96 367.43 1517.93 357.46 1517.93 343.638V240.652H1533.22C1536.62 240.652 1539.11 240.992 1540.7 241.671C1542.29 242.351 1543.19 243.711 1543.42 245.75C1543.65 247.789 1543.76 250.622 1543.76 254.247V330.042Z" fill="#222222"/>
<path d="M1184.83 397V254.587C1184.83 248.469 1185.28 244.617 1186.19 243.031C1187.32 241.445 1190.38 240.652 1195.37 240.652H1218.14L1319.42 370.149L1320.44 370.829V240.652H1340.5C1340.27 240.878 1340.04 241.785 1339.82 243.371C1339.59 244.73 1339.48 246.316 1339.48 248.129C1339.48 249.715 1339.48 251.301 1339.48 252.888V384.084C1339.48 389.976 1338.68 393.601 1337.1 394.961C1335.74 396.32 1332.68 397 1327.92 397H1306.85L1204.54 266.483L1204.2 265.124V397H1184.83Z" fill="#222222"/>
<path d="M1102.18 397C1102.18 372.755 1102.18 348.509 1102.18 324.264C1102.18 300.019 1102.18 275.773 1102.18 251.528C1102.18 249.036 1102.29 247.11 1102.52 245.75C1102.97 244.164 1103.77 242.918 1104.9 242.011C1106.26 241.105 1108.41 240.652 1111.36 240.652H1128.35V397H1102.18Z" fill="#222222"/>
<path d="M966.034 240.652V382.045H1070.38V397H940.203V251.868C940.203 249.375 940.316 247.336 940.543 245.75C940.769 244.164 941.562 242.918 942.922 242.011C944.282 241.105 946.434 240.652 949.38 240.652H966.034Z" fill="#222222"/>
<path d="M1287.75 117.343C1287.75 98.9888 1290.13 84.9401 1294.88 75.1966C1299.87 65.4532 1307.01 58.7687 1316.3 55.1432C1325.59 51.5178 1336.92 49.705 1350.29 49.705C1354.14 49.705 1358.67 49.8183 1363.88 50.0449C1369.32 50.2715 1374.76 50.7247 1380.2 51.4045C1385.63 51.8577 1390.39 52.4242 1394.47 53.1039C1398.55 53.7837 1401.38 54.4635 1402.97 55.1432L1395.83 58.5421V14.3568H1419.28L1418.94 117.683C1418.94 133.091 1417.92 145.44 1415.88 154.73C1413.84 163.794 1410.33 170.592 1405.35 175.124C1400.59 179.655 1393.79 182.714 1384.95 184.301C1376.34 185.887 1365.47 186.68 1352.32 186.68C1340.09 186.68 1329.78 185.887 1321.39 184.301C1313.01 182.714 1306.33 179.542 1301.34 174.784C1296.58 170.025 1293.07 163.114 1290.8 154.051C1288.77 144.987 1287.75 132.751 1287.75 117.343ZM1350.29 173.084C1360.48 173.084 1368.53 172.518 1374.42 171.385C1380.54 170.025 1385.18 167.533 1388.35 163.907C1391.53 160.055 1393.56 154.73 1394.47 147.933C1395.38 141.135 1395.83 132.184 1395.83 121.081V66.0197C1393.34 65.7931 1389.71 65.5665 1384.95 65.3399C1380.42 65.1133 1375.66 64.8867 1370.68 64.6601C1365.69 64.4335 1361.28 64.3202 1357.42 64.3202C1346.55 64.3202 1337.71 65.7931 1330.91 68.7388C1324.11 71.4579 1319.13 76.7828 1315.96 84.7135C1313.01 92.4176 1311.54 103.634 1311.54 118.362C1311.54 133.997 1312.67 145.78 1314.94 153.711C1317.43 161.415 1321.51 166.626 1327.17 169.346C1332.84 171.838 1340.54 173.084 1350.29 173.084Z" fill="#B50000"/>
<path d="M1199.43 188.039C1186.29 188.039 1175.18 187.133 1166.12 185.32C1157.28 183.508 1150.14 180.109 1144.71 175.124C1139.49 170.139 1135.64 163.228 1133.15 154.39C1130.88 145.327 1129.75 133.657 1129.75 119.382C1129.75 103.067 1131.79 89.6985 1135.87 79.2753C1139.95 68.8521 1147.2 61.148 1157.62 56.1629C1168.05 51.1779 1182.66 48.6854 1201.47 48.6854C1215.97 48.6854 1227.53 50.6114 1236.14 54.4635C1244.97 58.3156 1251.32 64.207 1255.17 72.1377C1259.25 80.0684 1261.29 90.3783 1261.29 103.067V122.441H1165.44C1165.44 119.722 1166.12 117.456 1167.48 115.643C1168.84 113.604 1171.33 112.584 1174.96 112.584H1239.87L1239.54 102.728C1239.31 88.6789 1236.25 78.4822 1230.36 72.1377C1224.69 65.7931 1214.72 62.6208 1200.45 62.6208C1188.44 62.6208 1179.04 64.4336 1172.24 68.059C1165.44 71.6845 1160.68 77.5759 1157.96 85.7332C1155.24 93.8905 1153.88 104.993 1153.88 119.042C1153.88 133.997 1155.36 145.44 1158.3 153.371C1161.47 161.075 1166.69 166.4 1173.94 169.346C1181.19 172.065 1191.04 173.424 1203.51 173.424C1207.81 173.424 1212.68 173.311 1218.12 173.084C1223.79 172.631 1229.45 172.178 1235.12 171.725C1240.78 171.272 1245.77 170.705 1250.07 170.025C1254.6 169.119 1257.78 168.213 1259.59 167.306V171.385C1259.59 173.651 1258.91 175.803 1257.55 177.843C1256.42 179.882 1253.92 181.581 1250.07 182.941C1245.09 184.98 1238.29 186.34 1229.68 187.02C1221.29 187.699 1211.21 188.039 1199.43 188.039Z" fill="#B50000"/>
<path d="M1035.03 121.761C1035.03 121.761 1031.86 121.761 1025.51 121.761C1019.17 121.761 1010.67 121.761 1000.02 121.761C989.373 121.761 977.59 121.875 964.675 122.101V186H938.503V47.3259C938.503 40.7547 939.863 36.2229 942.582 33.7303C945.528 31.2378 950.286 29.8783 956.857 29.6517C960.256 29.4251 964.675 29.3118 970.113 29.3118C975.778 29.3118 982.009 29.3118 988.807 29.3118C995.605 29.0852 1002.52 28.9719 1009.54 28.9719C1016.79 28.9719 1023.7 28.9719 1030.27 28.9719C1037.07 28.9719 1043.08 29.0852 1048.29 29.3118C1053.5 29.5384 1057.58 29.765 1060.52 29.9916C1072.31 31.1245 1080.92 35.0899 1086.35 41.8876C1091.79 48.4588 1094.51 58.3156 1094.51 71.4579C1094.51 81.8811 1093.04 90.1517 1090.09 96.2697C1087.37 102.388 1083.18 106.919 1077.52 109.865C1076.84 110.545 1075.7 111.111 1074.12 111.565C1072.76 111.791 1071.29 111.905 1069.7 111.905V112.584C1070.61 112.584 1071.63 112.584 1072.76 112.584C1073.89 112.584 1074.8 112.584 1075.48 112.584C1084.09 114.17 1089.3 117.683 1091.11 123.121C1092.93 128.332 1093.83 133.657 1093.83 139.096V177.843C1093.83 180.109 1094.06 182.035 1094.51 183.621C1094.97 184.98 1095.3 185.773 1095.53 186H1077.18C1074.01 186 1071.51 185.434 1069.7 184.301C1067.89 183.168 1066.98 180.449 1066.98 176.143V140.115C1066.98 133.091 1065.39 128.332 1062.22 125.84C1059.28 123.121 1053.95 121.761 1046.25 121.761H1035.03ZM964.675 107.486C967.847 107.486 972.832 107.599 979.63 107.826C986.428 107.826 993.792 107.826 1001.72 107.826C1009.88 107.826 1017.36 107.826 1024.16 107.826C1030.95 107.826 1035.94 107.826 1039.11 107.826C1046.59 107.826 1053.16 105.56 1058.82 101.028C1064.72 96.2697 1067.66 87.5459 1067.66 74.8568C1067.66 66.2463 1065.96 59.4485 1062.56 54.4635C1059.39 49.2519 1054.18 46.1929 1046.93 45.2865C1042.17 44.6068 1036.28 44.2669 1029.25 44.2669C1022.23 44.0403 1014.98 44.0403 1007.5 44.2669C1000.02 44.2669 993.112 44.3802 986.767 44.6068C980.423 44.6068 975.664 44.6068 972.492 44.6068C971.812 44.6068 970.34 45.0599 968.074 45.9663C965.808 46.6461 964.675 48.912 964.675 52.7641V107.486Z" fill="#B50000"/>
</svg>
